<?xml version="1.0" standalone="no"?>
<!DOCTYPE svg PUBLIC "-//W3C//DTD SVG 20010904//EN"
 "http://www.w3.org/TR/2001/REC-SVG-20010904/DTD/svg10.dtd">
<svg version="1.0" xmlns="http://www.w3.org/2000/svg"
 width="512.000000pt" height="512.000000pt" viewBox="0 0 512.000000 512.000000"
 preserveAspectRatio="xMidYMid meet">

<g transform="translate(0.000000,512.000000) scale(0.100000,-0.100000)"
fill="#000000" stroke="none">
<path d="M1693 5003 c-7 -2 -13 -10 -13 -16 0 -6 -7 -19 -17 -29 -14 -15 -14
-24 -5 -57 15 -47 16 -128 2 -136 -15 -9 -12 -51 5 -65 21 -18 19 -36 -10 -75
-17 -21 -38 -35 -59 -39 -19 -4 -39 -13 -46 -21 -7 -8 -20 -15 -30 -15 -10 0
-20 -7 -24 -15 -3 -8 -12 -15 -21 -15 -8 0 -37 -30 -65 -67 -43 -60 -47 -69
-31 -75 10 -3 21 -14 25 -24 9 -23 -11 -81 -30 -88 -19 -7 -50 8 -58 29 -5 14
-10 13 -36 -7 -38 -28 -72 -121 -51 -141 11 -9 15 -9 18 2 3 7 18 27 32 44 21
23 32 28 49 23 47 -15 52 -54 51 -395 0 -186 -4 -308 -9 -296 -5 13 -9 -31 -9
-116 -1 -113 2 -138 14 -143 22 -8 20 -89 -2 -107 -13 -11 -17 -12 -21 -1 -2
7 -15 17 -28 22 l-24 10 0 424 0 424 25 6 c54 14 7 51 -50 40 l-35 -6 0 -476
0 -475 -25 -32 c-13 -18 -34 -35 -47 -38 -13 -3 -48 -14 -78 -26 -30 -12 -62
-21 -70 -21 -8 0 -32 -9 -53 -20 -20 -11 -47 -20 -59 -20 -13 0 -36 -9 -53
-20 -16 -11 -41 -20 -55 -20 -31 -1 -66 -27 -75 -58 -5 -19 -1 -25 28 -37 26
-11 36 -22 41 -46 10 -52 7 -327 -4 -334 -6 -4 -8 -11 -5 -16 11 -17 44 -9 72
17 25 23 26 27 11 35 -15 8 -17 25 -16 115 l2 105 26 -6 c62 -15 70 -29 70
-116 0 -44 -5 -89 -10 -100 -11 -19 -9 -20 22 -23 8 -1 12 30 13 104 1 87 -2
111 -19 143 -11 21 -27 37 -37 37 -10 0 -19 5 -21 12 -3 7 -13 5 -31 -7 -35
-22 -57 -7 -57 40 0 35 13 45 56 45 14 0 27 7 30 15 4 9 20 15 43 15 58 0 84
10 70 26 -12 15 -11 16 41 19 50 4 93 16 110 30 8 7 36 16 63 19 26 4 47 11
47 17 0 5 18 9 41 9 32 0 42 4 46 20 4 16 14 20 51 20 28 0 52 6 63 16 28 25
69 11 71 -24 6 -85 -9 -109 -53 -87 -34 18 -56 3 -61 -40 -4 -36 -33 -46 -43
-16 -7 24 -65 31 -65 8 0 -19 -43 -37 -61 -26 -8 5 -26 9 -40 9 -24 0 -28 -5
-35 -47 -5 -27 -7 -94 -5 -151 4 -113 -8 -142 -55 -142 -36 0 -43 27 -37 131
5 82 9 96 29 114 l23 20 -20 24 -20 24 -21 -23 c-17 -18 -28 -21 -59 -17 -33
4 -40 1 -55 -20 -14 -22 -14 -27 -1 -40 11 -12 19 -12 35 -4 11 6 25 11 31 11
17 0 32 -77 29 -152 -3 -66 -5 -74 -28 -85 -23 -11 -19 -13 42 -13 44 0 68 4
70 12 3 8 27 13 61 15 32 1 67 9 79 18 14 9 44 15 75 15 41 0 53 3 53 16 0 10
-6 13 -18 10 -10 -4 -27 0 -38 8 -17 13 -19 27 -20 120 -1 116 5 130 53 124
l28 -3 3 -97 c2 -88 1 -98 -19 -117 l-21 -20 33 -5 c19 -3 47 -7 64 -8 21 -2
31 -9 33 -23 5 -27 20 -42 25 -24 2 8 9 30 15 49 6 20 12 132 14 259 2 252 -3
238 89 259 58 14 103 3 107 -26 2 -16 -2 -22 -15 -22 -10 0 -25 -5 -33 -11
-26 -18 117 -3 145 15 30 20 75 21 100 3 22 -17 13 -34 -29 -53 -29 -12 -25
-13 62 -14 73 0 94 3 98 15 8 19 62 19 86 1 20 -15 6 -36 -24 -36 -10 0 -18
-4 -18 -8 0 -13 122 -7 147 6 30 17 88 15 103 -3 17 -21 4 -34 -40 -41 -22 -4
-45 -13 -51 -20 -6 -8 -18 -14 -25 -14 -8 0 -14 -7 -14 -15 0 -11 13 -15 53
-15 29 0 58 5 65 12 12 12 116 48 141 48 18 0 7 -45 -19 -82 -11 -15 -20 -32
-20 -37 0 -5 -9 -25 -19 -43 -11 -18 -23 -50 -26 -70 -7 -39 -21 -49 -75 -50
-40 -1 -38 -16 3 -20 24 -2 32 -8 32 -23 0 -28 -35 -31 -81 -6 -44 24 -75 26
-107 9 -20 -11 -18 -13 33 -26 30 -8 76 -16 103 -19 33 -3 50 -11 58 -24 10
-20 6 -309 -5 -328 -4 -6 -26 -8 -55 -4 -31 3 -51 1 -55 -6 -5 -8 11 -11 53
-11 60 0 61 0 61 -29 0 -24 -5 -29 -31 -35 -17 -3 -42 -6 -55 -6 -13 0 -24 -5
-24 -11 0 -7 9 -9 24 -5 13 3 38 3 56 0 28 -6 31 -10 28 -37 -3 -28 -7 -31
-63 -44 -33 -8 -80 -17 -105 -21 -29 -5 -45 -12 -46 -22 -2 -28 -4 -29 -36
-18 -38 12 -94 11 -117 -2 -13 -7 -11 -10 12 -19 16 -6 32 -11 36 -11 4 0 26
-9 50 -21 47 -22 49 -39 8 -50 -21 -6 -32 -3 -45 12 -24 25 -82 37 -82 17 0
-7 15 -18 32 -23 44 -13 49 -41 9 -50 -17 -4 -31 -10 -31 -15 0 -13 -33 -21
-43 -11 -7 7 -4 18 6 34 9 14 14 27 12 29 -3 3 -27 0 -55 -6 -43 -8 -50 -13
-50 -33 0 -26 -26 -30 -76 -13 -19 7 -50 7 -84 2 -51 -8 -53 -9 -25 -16 17 -4
40 -12 53 -17 13 -5 35 -9 49 -9 20 0 23 -3 15 -13 -9 -10 -4 -13 23 -12 18 0
37 3 41 8 26 25 67 -11 64 -56 -1 -12 -2 -29 -1 -37 2 -27 21 11 21 43 0 16 6
35 13 42 6 8 18 21 25 30 7 8 24 15 38 15 13 0 27 6 30 14 3 8 20 18 37 22 16
3 44 15 61 25 17 10 39 19 48 19 10 0 27 9 37 19 11 11 35 21 53 23 42 4 54
38 14 38 -28 0 -35 17 -11 27 9 3 24 -2 34 -11 25 -23 72 -21 78 3 3 11 11 22
19 25 10 4 14 22 14 58 0 29 4 59 9 67 5 8 5 25 -1 42 -17 49 3 69 70 69 72 0
84 -8 80 -51 -3 -33 -5 -34 -53 -40 l-50 -5 50 -5 50 -4 3 -152 c2 -128 0
-157 -14 -178 -9 -14 -24 -25 -33 -25 -26 0 -101 -44 -101 -59 0 -9 7 -11 23
-7 12 3 25 6 30 6 4 0 7 7 7 15 0 9 10 16 28 16 101 6 121 3 169 -18 63 -28
73 -29 73 -3 0 13 9 22 25 26 50 12 23 24 -54 24 -53 0 -83 4 -88 13 -10 15
-15 511 -7 625 l7 84 67 68 c79 80 89 83 247 78 88 -2 113 -6 127 -21 10 -9
26 -17 37 -17 10 0 19 -7 19 -15 0 -8 8 -15 18 -16 9 0 39 -29 67 -65 27 -35
53 -64 57 -64 4 0 8 -11 8 -25 0 -14 6 -28 14 -31 7 -3 17 -24 20 -47 4 -22
12 -48 19 -56 14 -16 23 -347 12 -448 l-7 -63 -246 -1 c-136 0 -256 -4 -267
-9 -18 -8 -18 -9 5 -10 14 -1 70 0 125 1 55 1 114 2 130 2 17 -1 77 -1 135 -1
93 1 127 1 173 -2 6 0 75 1 152 2 77 1 157 -2 178 -6 44 -10 51 7 10 22 -60
23 -57 6 -64 334 -7 324 -17 404 -60 478 -5 8 -12 22 -15 30 -13 37 -87 172
-107 196 -114 138 -269 264 -324 264 -10 0 -30 8 -43 18 -21 14 -49 17 -190
17 -163 0 -165 0 -207 -27 -24 -16 -48 -28 -55 -28 -7 -1 -31 -12 -53 -25 -85
-52 -102 -55 -134 -21 -17 18 -39 27 -80 32 -31 3 -61 11 -68 16 -6 5 -43 12
-82 17 -121 13 -111 -36 -111 543 l0 498 -35 0 c-21 0 -43 -8 -54 -19 -18 -18
-19 -39 -17 -470 1 -375 3 -453 15 -460 19 -12 6 -41 -17 -41 -44 0 -51 19
-57 155 -9 220 -10 352 -3 560 7 222 4 254 -20 249 -79 -15 -93 -13 -104 12
-6 13 -19 24 -29 24 -10 0 -24 9 -31 19 -11 16 -16 17 -31 6 -14 -10 -25 -10
-48 -1 -28 10 -33 9 -60 -21 l-29 -33 -16 25 c-23 36 -14 103 21 149 46 61 86
45 129 -53 11 -22 26 -41 34 -41 8 0 34 20 59 45 24 25 48 45 54 45 11 0 59
-49 59 -61 0 -4 5 -20 11 -36 l11 -28 24 30 c13 17 24 35 24 42 0 32 51 18 87
-25 l23 -27 0 46 c0 36 -6 52 -26 72 -22 22 -29 24 -49 15 -19 -8 -29 -7 -52
9 -20 15 -51 22 -109 26 -52 3 -91 11 -108 22 -29 19 -56 14 -56 -10 0 -13 -6
-15 -29 -10 -17 3 -32 2 -36 -4 -9 -16 -56 -2 -75 22 -14 16 -20 18 -38 8 -11
-6 -55 -11 -97 -11 -72 0 -76 1 -85 26 -14 35 -9 41 89 142 33 34 65 62 70 62
6 0 17 -10 26 -22 l16 -23 17 21 c37 44 107 59 132 29 7 -8 28 -15 47 -15 19
0 44 -5 56 -12 29 -15 87 -78 117 -127 28 -46 35 -49 49 -22 9 15 5 26 -19 52
-16 19 -30 38 -30 42 0 12 -63 67 -76 67 -6 0 -17 7 -24 15 -6 7 -31 17 -55
21 -27 4 -51 15 -64 30 -11 13 -25 24 -31 24 -5 0 -10 14 -10 31 0 22 5 32 20
36 26 7 28 53 3 53 -10 0 -26 14 -36 31 l-17 31 35 42 c34 41 45 76 25 76 -5
0 -13 -7 -18 -16 -14 -25 -24 0 -12 31 15 38 -4 62 -37 48z m-163 -703 c0 -5
-7 -10 -15 -10 -8 0 -15 5 -15 10 0 6 7 10 15 10 8 0 15 -4 15 -10z m330 -44
c0 -22 -11 -46 -21 -46 -10 0 -12 43 -2 53 11 12 23 8 23 -7z m-311 -23 c26
-23 42 -123 20 -123 -8 0 -25 7 -37 16 -27 19 -40 12 -58 -32 -12 -28 -14
-116 -13 -470 0 -276 -3 -440 -9 -446 -29 -29 -32 10 -32 493 0 513 0 513 42
567 15 18 62 15 87 -5z m192 -569 c2 -538 3 -493 -21 -487 -11 3 -24 13 -29
22 -11 20 -14 852 -4 867 7 10 43 23 51 19 1 -1 3 -191 3 -421z m-196 394 c3
-13 4 -208 3 -435 -2 -313 -6 -415 -15 -425 -35 -33 -38 2 -41 425 -2 227 0
422 3 435 3 13 13 22 25 22 12 0 22 -9 25 -22z m-275 -428 l-6 -425 -2 421
c-1 231 1 424 5 427 3 4 7 6 7 5 1 -2 -1 -194 -4 -428z m868 408 c9 -9 12
-119 12 -434 0 -232 -3 -429 -6 -438 -11 -29 -43 -19 -49 17 -8 48 -1 840 8
855 10 15 20 15 35 0z m-198 -442 c0 -297 -4 -434 -11 -443 -13 -15 -35 -17
-44 -3 -8 13 -7 859 1 872 3 5 17 8 30 6 l25 -3 -1 -429z m46 407 c-10 -10
-19 5 -10 18 6 11 8 11 12 0 2 -7 1 -15 -2 -18z m1 -80 c-3 -10 -5 -4 -5 12 0
17 2 24 5 18 2 -7 2 -21 0 -30z m-330 -195 c-3 -8 -6 -5 -6 6 -1 11 2 17 5 13
3 -3 4 -12 1 -19z m0 -490 c-2 -13 -4 -3 -4 22 0 25 2 35 4 23 2 -13 2 -33 0
-45z m321 21 c-18 -12 -23 8 -6 28 12 15 13 15 16 -2 2 -10 -2 -21 -10 -26z
m-678 -111 c-1 -31 -1 -32 -15 -14 -19 25 -19 46 0 46 10 0 15 -10 15 -32z
m1847 -138 c21 -11 42 -20 47 -20 5 0 35 -18 67 -40 32 -22 62 -40 66 -40 12
0 123 -124 169 -189 59 -83 104 -168 104 -195 0 -12 6 -28 12 -34 17 -17 37
-114 37 -183 1 -63 -6 -69 -79 -69 -61 0 -78 9 -85 46 -7 38 -25 46 -25 12 0
-13 0 -139 0 -281 l1 -258 -23 3 -23 3 -1 274 c-2 240 -4 275 -18 283 -9 5
-16 20 -16 33 0 14 -4 25 -10 25 -5 0 -10 11 -10 25 0 15 -12 38 -30 55 -16
16 -30 36 -30 45 0 28 -30 63 -49 58 -13 -3 -21 2 -26 17 -5 15 -13 20 -26 17
-13 -3 -23 2 -30 15 -7 13 -17 18 -30 15 -12 -3 -20 1 -24 13 -5 16 -18 18
-121 17 -118 -1 -140 6 -127 40 8 20 251 19 259 -2 4 -8 17 -15 30 -15 15 0
24 -6 24 -15 0 -9 9 -15 24 -15 13 0 26 -7 30 -15 3 -8 13 -15 22 -15 22 0 94
-79 94 -103 0 -10 14 -31 30 -47 17 -16 30 -38 30 -49 0 -11 5 -23 10 -26 6
-3 10 -17 10 -31 0 -15 6 -24 16 -24 11 0 14 5 9 18 -4 9 -11 31 -16 49 -6 18
-14 35 -19 38 -6 4 -10 15 -10 26 0 10 -4 19 -10 19 -5 0 -16 15 -25 33 -19
39 -108 137 -124 137 -7 0 -27 11 -44 24 -18 13 -43 27 -57 31 -14 4 -30 12
-36 16 -7 5 -61 10 -120 10 -103 0 -113 -2 -174 -32 -67 -34 -81 -45 -143
-121 -24 -29 -37 -55 -37 -75 0 -16 -6 -35 -12 -41 -8 -8 -15 -53 -18 -115
l-5 -102 -72 -3 c-69 -3 -73 -2 -78 21 -11 43 2 299 18 367 21 89 41 140 64
164 11 12 23 31 27 44 4 12 11 22 16 22 4 0 29 20 54 45 26 25 53 45 60 45 8
0 19 6 25 14 7 8 27 18 44 22 18 3 38 11 46 18 40 32 276 29 338 -4z m-1625
-138 c21 -35 22 -184 2 -224 -15 -29 -47 -37 -60 -17 -10 17 -12 231 -2 252
13 26 42 21 60 -11z m-257 -53 c4 -5 18 -15 32 -20 19 -7 23 -13 17 -27 -5 -9
-10 -54 -12 -98 -3 -70 -7 -85 -27 -104 -19 -18 -27 -20 -44 -11 -20 11 -21
20 -21 135 0 67 3 126 7 129 10 11 41 8 48 -4z m2383 -642 c2 -27 -1 -39 -13
-43 -13 -5 -14 -8 -1 -18 17 -14 30 -311 15 -339 -8 -13 -24 -17 -80 -17 -48
0 -71 4 -75 13 -7 19 -8 108 -5 290 l3 158 77 -3 76 -3 3 -38z m-1388 -261 c0
-19 -30 -29 -46 -15 -22 18 -16 29 16 29 19 0 30 -5 30 -14z"/>
<path d="M1622 4818 c2 -13 8 -23 13 -23 6 0 11 10 13 23 2 15 -2 22 -13 22
-11 0 -15 -7 -13 -22z"/>
<path d="M1772 4818 c2 -13 8 -23 13 -23 6 0 11 10 13 23 2 15 -2 22 -13 22
-11 0 -15 -7 -13 -22z"/>
<path d="M1831 4484 c0 -11 3 -14 6 -6 3 7 2 16 -1 19 -3 4 -6 -2 -5 -13z"/>
<path d="M1361 4004 c0 -11 3 -14 6 -6 3 7 2 16 -1 19 -3 4 -6 -2 -5 -13z"/>
<path d="M1657 2933 c-4 -3 -7 -17 -7 -29 0 -19 5 -22 28 -21 l27 2 3 -123 c3
-138 9 -123 -92 -225 -33 -34 -43 -39 -71 -34 -30 5 -33 3 -39 -25 -4 -21 -1
-37 9 -48 18 -20 19 -34 3 -60 -10 -15 -9 -22 3 -37 13 -15 15 -44 13 -168 -6
-273 -7 -295 -21 -306 -15 -13 -18 -39 -4 -39 6 0 13 5 16 10 10 15 42 12 49
-5 4 -13 10 -14 26 -5 24 13 26 33 5 50 -19 16 -19 50 1 78 12 17 25 22 60 22
75 0 52 25 -31 32 -28 3 -30 6 -33 48 -1 25 -7 54 -13 66 -9 18 -9 110 1 267
1 13 10 17 36 17 43 0 44 14 2 26 l-32 9 29 27 c26 24 31 26 45 13 9 -8 24
-15 33 -15 9 0 19 -4 22 -10 3 -5 30 -10 58 -10 l52 1 -37 20 c-21 11 -38 24
-38 29 0 6 -22 10 -50 10 -44 0 -50 2 -50 21 0 11 12 35 28 52 33 37 104 108
123 122 25 19 105 55 122 55 9 0 17 7 17 15 0 8 -8 15 -19 15 -29 0 -43 24
-36 62 7 40 -31 96 -58 85 -24 -9 -22 -54 2 -62 28 -8 29 -111 2 -120 -10 -3
-26 -14 -36 -25 -24 -27 -51 -25 -59 3 -3 12 -6 57 -6 100 0 93 -10 117 -49
117 -15 0 -31 -3 -34 -7z"/>
<path d="M1981 2882 c-6 -11 -9 -38 -8 -60 1 -31 5 -42 17 -42 9 0 20 3 24 8
4 4 33 12 64 19 110 23 163 39 160 48 -4 13 -69 6 -92 -11 -34 -23 -66 -17
-100 21 -37 40 -51 43 -65 17z"/>
<path d="M2155 2600 c3 -5 8 -10 11 -10 2 0 4 5 4 10 0 6 -5 10 -11 10 -5 0
-7 -4 -4 -10z"/>
<path d="M2091 2574 c-7 -8 -20 -13 -28 -9 -19 7 -86 -5 -78 -14 4 -3 30 -7
58 -8 51 -2 94 18 81 38 -7 13 -17 11 -33 -7z"/>
<path d="M2135 2540 c-4 -6 7 -10 25 -10 18 0 29 4 25 10 -3 6 -15 10 -25 10
-10 0 -22 -4 -25 -10z"/>
<path d="M1430 2520 c0 -5 7 -10 15 -10 8 0 15 5 15 10 0 6 -7 10 -15 10 -8 0
-15 -4 -15 -10z"/>
<path d="M1805 2521 c-8 -14 6 -19 47 -18 20 0 61 -8 92 -18 44 -15 59 -16 68
-7 9 9 4 12 -25 12 -26 0 -40 6 -49 20 -10 16 -24 20 -70 20 -31 0 -59 -4 -63
-9z"/>
<path d="M1295 2489 c-10 -15 1 -22 24 -14 12 3 19 11 16 16 -8 12 -32 11 -40
-2z"/>
<path d="M1174 2458 c-10 -16 4 -22 28 -11 l22 10 -22 5 c-12 4 -25 2 -28 -4z"/>
<path d="M1045 2433 c-22 -3 -44 -8 -50 -13 -5 -4 -27 -11 -47 -15 -21 -4 -38
-12 -38 -17 0 -13 77 -2 138 18 23 8 56 14 72 14 16 0 32 5 35 10 6 10 -29 11
-110 3z"/>
<path d="M712 2413 c-18 -3 -36 -11 -39 -19 -3 -8 -13 -14 -22 -14 -9 0 -48
-20 -85 -45 -38 -25 -72 -45 -75 -45 -8 -1 -71 -85 -71 -94 0 -5 -27 -44 -60
-88 -33 -43 -60 -86 -60 -95 0 -8 -8 -32 -19 -52 -27 -53 -53 -163 -77 -328
-8 -50 -22 -64 -72 -72 -35 -6 -37 -9 -44 -51 -3 -25 -12 -162 -18 -304 -7
-143 -14 -293 -16 -335 -2 -42 -6 -139 -9 -216 -11 -292 -17 -359 -32 -377
-13 -15 -14 -23 -4 -47 10 -23 10 -33 -1 -50 -11 -18 -10 -25 4 -48 15 -26 22
-28 90 -31 68 -3 80 0 146 33 l72 35 253 -2 252 -3 3 -35 c4 -46 25 -60 88
-60 51 0 144 32 144 50 0 4 15 18 34 29 32 20 47 21 299 21 291 0 297 -1 297
-59 0 -43 21 -55 88 -49 43 4 70 14 107 39 l50 34 675 2 c1206 4 2394 13 2453
19 l57 6 0 43 c0 38 -2 42 -19 38 -12 -3 -33 5 -54 21 -19 14 -43 26 -55 26
-11 0 -28 10 -36 22 -13 18 -24 21 -71 19 -30 -1 -55 3 -55 8 0 14 -111 51
-153 51 -15 0 -37 11 -51 25 -20 20 -35 25 -74 25 -35 0 -57 6 -76 21 -20 16
-43 21 -102 23 -55 2 -80 8 -92 20 -16 15 -17 65 -19 564 l-1 547 -27 13 c-36
18 -117 17 -158 -3 -29 -13 -100 -15 -574 -13 -489 3 -543 5 -559 20 -11 9
-31 20 -46 23 -24 6 -29 3 -38 -19 -5 -14 -13 -26 -17 -26 -5 -1 -100 -2 -213
-3 l-205 -1 -3 23 c-2 15 3 28 12 33 17 10 22 38 6 38 -5 0 -14 -9 -20 -20 -6
-11 -17 -20 -26 -20 -8 0 -35 -20 -59 -45 -32 -32 -45 -52 -45 -72 1 -26 1
-27 15 -9 8 11 21 16 30 12 14 -5 16 -58 15 -508 -1 -509 11 -683 20 -288 5
214 5 215 28 218 l22 3 0 -223 c0 -222 0 -223 -24 -246 -13 -12 -31 -22 -39
-22 -22 0 -79 -60 -73 -76 3 -9 -2 -14 -15 -14 -11 0 -44 -18 -74 -40 -30 -22
-66 -45 -81 -50 -23 -9 -25 -12 -13 -27 10 -12 11 -15 1 -9 -18 11 -72 -3 -72
-19 0 -10 19 -14 75 -13 l75 0 0 29 0 29 608 2 607 3 -575 5 -575 5 -3 22 -3
23 348 2 348 3 -302 2 c-288 3 -303 4 -313 23 -8 15 -7 21 7 28 22 11 2254 14
2272 3 26 -17 7 -46 -34 -53 -23 -4 12 -6 85 -6 69 0 131 0 138 -1 21 -2 13
-41 -10 -50 -16 -6 -5 -8 37 -7 81 3 97 -2 93 -28 l-3 -21 -875 -5 c-495 -3
-712 -6 -500 -8 206 -2 637 -3 958 -2 l583 0 -3 -27 -3 -28 -500 3 c-275 1
-960 2 -1522 2 -884 0 -1023 2 -1023 14 0 21 -20 30 -33 17 -6 -6 -23 -11 -38
-11 -14 0 -38 -9 -52 -20 -14 -11 -30 -20 -36 -20 -16 0 -13 36 4 50 11 9 14
22 10 42 -6 27 7 39 19 19 3 -5 15 -7 26 -4 15 4 18 11 14 29 -5 18 -2 24 9
24 9 0 19 -5 22 -10 3 -6 13 -10 20 -10 11 0 13 8 8 32 l-6 31 40 -6 c35 -6
41 -4 46 13 3 12 14 20 25 20 11 0 22 6 25 14 3 8 18 16 34 18 20 2 29 9 31
26 2 16 10 22 27 22 14 0 29 9 35 20 6 11 16 18 21 14 14 -8 49 25 49 48 0 28
-40 22 -79 -12 -18 -17 -39 -30 -46 -30 -7 0 -15 -7 -19 -15 -3 -8 -17 -15
-31 -15 -18 0 -25 -5 -25 -20 0 -14 -7 -20 -24 -20 -13 0 -34 -11 -47 -25 -13
-13 -32 -25 -42 -25 -10 0 -20 -7 -23 -15 -4 -8 -15 -15 -26 -15 -11 0 -22 -8
-24 -18 -5 -15 -52 -40 -110 -57 -25 -7 -34 -31 -34 -97 0 -29 -6 -53 -16 -62
-19 -20 -24 -20 -52 0 -20 14 -22 20 -16 83 5 46 3 70 -5 75 -7 4 -11 0 -11
-11 0 -41 -14 -43 -281 -43 -255 0 -258 0 -273 22 -11 16 -16 18 -16 7 0 -21
-87 -91 -108 -87 -12 2 -17 14 -18 38 -3 166 -5 194 -14 180 -5 -8 -10 -60
-11 -115 -2 -147 -13 -174 -59 -137 -21 17 -23 28 -26 135 -2 65 -4 151 -4
192 0 43 -4 75 -10 75 -6 0 -10 -51 -10 -134 0 -102 -3 -136 -14 -145 -22 -18
-26 19 -27 212 -1 185 -1 187 7 587 6 279 -8 534 -32 580 -7 14 -15 32 -19 40
-30 73 -78 105 -148 97 -61 -8 -115 -49 -116 -89 -1 -18 -6 -28 -16 -28 -22 0
-21 -95 1 -104 27 -11 36 4 30 49 -6 37 -5 43 11 41 12 0 19 7 21 21 2 15 13
25 28 29 13 3 24 13 24 21 0 13 9 15 45 11 45 -6 83 -34 98 -72 4 -9 14 -16
23 -16 11 0 15 -6 12 -18 -3 -10 -1 -48 4 -84 8 -59 6 -70 -13 -102 -24 -41
-59 -50 -59 -15 0 11 -5 19 -11 17 -7 -2 -10 -57 -9 -168 0 -90 3 -166 4 -168
2 -2 13 2 25 10 30 18 39 3 43 -72 3 -56 1 -65 -15 -68 -10 -2 -27 4 -37 13
-19 17 -19 13 -22 -146 -2 -90 -2 -167 0 -172 2 -4 11 -3 20 2 9 4 31 4 49 -1
28 -7 32 -13 37 -56 3 -26 4 -118 2 -205 -2 -124 -6 -161 -17 -168 -8 -5 -71
-9 -142 -9 l-127 0 -11 27 c-5 14 -10 110 -11 212 -4 582 -2 970 6 998 10 35
-4 63 -31 63 -12 0 -14 -87 -13 -632 1 -348 1 -638 1 -645 -2 -22 -72 -28
-105 -9 -20 11 -32 14 -34 7 -2 -6 -10 -11 -17 -11 -8 0 -18 -6 -22 -14 -4 -7
-25 -21 -47 -31 -59 -28 -67 -12 -59 130 6 108 1 156 -14 141 -4 -4 -10 -73
-13 -153 -4 -124 -8 -148 -22 -157 -13 -8 -23 -8 -35 0 -24 15 -28 75 -13 194
6 52 16 165 20 250 11 180 36 476 46 538 4 23 11 45 15 48 15 9 10 37 -6 31
-21 -9 -29 48 -21 151 11 131 10 130 64 134 53 3 44 -19 78 193 9 61 20 115
24 120 4 6 11 27 14 49 4 21 11 46 15 55 5 9 24 47 42 85 36 73 90 135 142
162 46 24 173 30 218 10 19 -8 41 -22 49 -30 7 -9 18 -16 25 -16 14 0 63 -67
80 -110 6 -14 13 -30 43 -100 6 -14 14 -41 18 -60 3 -19 10 -39 14 -45 4 -5
10 -41 13 -79 9 -101 18 -110 102 -107 38 1 78 7 88 13 11 6 77 14 146 18 133
9 161 15 161 34 0 9 28 12 108 9 98 -4 147 5 130 22 -11 11 -80 27 -148 34
-79 8 -90 14 -90 51 0 19 -7 33 -19 39 -11 7 -21 26 -24 48 -11 74 -19 102
-33 114 -8 6 -14 19 -14 29 0 10 -7 23 -15 30 -8 7 -15 19 -15 26 0 8 -7 14
-15 14 -8 0 -15 9 -15 20 0 11 -6 20 -13 20 -8 0 -22 9 -31 19 -9 10 -27 21
-39 24 -12 2 -31 8 -42 12 -14 5 -11 -1 10 -19 17 -14 35 -25 40 -26 6 0 24
-16 40 -37 17 -20 40 -47 53 -61 12 -14 22 -31 22 -39 0 -8 7 -21 15 -29 8 -9
15 -25 15 -38 0 -12 9 -39 20 -61 27 -53 25 -65 -10 -78 -16 -6 -30 -18 -30
-27 0 -11 -12 -15 -43 -17 -23 -1 -67 -11 -97 -22 -30 -12 -71 -21 -90 -21
-24 0 -42 -7 -53 -21 -28 -32 -52 -21 -55 26 -6 95 -69 288 -117 366 -14 21
-38 48 -55 60 -31 23 -41 63 -17 72 6 2 -18 8 -54 12 -77 8 -92 15 -87 41 2
14 13 20 38 22 57 5 69 12 40 25 -22 10 -16 12 48 15 90 4 96 22 7 22 -61 0
-66 2 -75 25 -5 14 -11 24 -12 23 -2 0 -18 -3 -36 -5z m723 -664 c9 -27 2 -33
-30 -25 -16 4 -25 13 -25 26 0 28 46 28 55 -1z m1063 -176 c37 4 129 8 205 9
112 1 140 -1 148 -13 14 -22 11 -50 -7 -70 -15 -17 -15 -19 0 -34 14 -14 16
-46 16 -223 0 -114 -4 -213 -9 -220 -5 -9 -28 -12 -77 -10 -64 3 -69 5 -72 27
-2 13 -10 31 -18 38 -8 8 -14 21 -14 30 0 8 -12 32 -27 54 -27 37 -30 39 -85
39 -50 0 -61 -4 -83 -27 -14 -15 -25 -33 -25 -39 0 -6 -7 -17 -15 -24 -9 -7
-15 -20 -14 -29 4 -39 -2 -62 -17 -68 -9 -3 -20 0 -25 8 -5 8 -9 107 -9 221 0
178 2 209 16 223 13 12 14 19 5 28 -14 14 -14 52 0 78 8 16 13 18 25 8 10 -8
36 -10 82 -6z m1698 -18 c15 -19 19 -497 4 -525 -15 -27 -98 -29 -106 -2 -3 9
-11 28 -18 42 -7 14 -16 37 -20 53 -4 15 -23 45 -42 67 -31 34 -42 40 -76 40
-57 0 -118 -55 -118 -107 0 -8 -7 -36 -16 -64 -12 -37 -21 -49 -36 -49 -25 0
-57 38 -58 67 0 12 -4 25 -10 28 -5 3 -10 16 -10 28 -1 12 -8 31 -18 42 -59
69 -134 70 -183 3 -16 -23 -29 -51 -29 -63 0 -49 -47 -108 -81 -103 -17 2 -26
18 -45 78 -27 87 -76 140 -130 140 -54 0 -124 -87 -124 -156 0 -61 -4 -64 -96
-64 -82 0 -85 1 -95 27 -8 21 -8 382 0 438 1 6 -1 25 -5 42 -13 67 -61 63 653
57 536 -4 650 -7 659 -19z m-952 -418 c34 -37 47 -73 36 -102 -9 -25 -13 -26
-72 -23 l-63 3 -3 49 c-3 39 1 53 19 72 28 30 56 30 83 1z m376 -14 c24 -29
30 -46 28 -73 l-3 -35 -72 -3 c-72 -3 -73 -2 -73 22 0 14 5 28 10 31 6 3 10
15 10 27 0 22 38 68 57 68 6 0 26 -17 43 -37z m368 7 c12 -16 22 -34 22 -40 0
-6 5 -19 12 -29 6 -10 8 -26 5 -35 -6 -14 -19 -16 -74 -14 l-68 3 -3 42 c-7
93 58 138 106 73z m-1383 -24 c35 -33 41 -50 29 -80 -9 -23 -139 -23 -148 0
-12 31 -5 58 21 86 35 37 56 35 98 -6z m23 -138 c9 -9 12 -81 12 -260 0 -222
-2 -249 -16 -255 -10 -4 -22 1 -29 10 -8 12 -27 17 -58 17 -25 0 -49 5 -53 12
-10 16 -12 437 -2 466 7 20 14 22 71 22 36 0 68 -5 75 -12z m220 0 c15 -15 17
-430 2 -459 -9 -15 -22 -19 -63 -19 -89 0 -87 -5 -92 234 -2 115 1 220 6 233
8 21 15 23 72 23 36 0 68 -5 75 -12z m222 -7 c15 -30 13 -423 -3 -444 -16 -23
-149 -36 -172 -17 -13 10 -15 48 -15 234 0 159 3 225 12 234 7 7 43 12 90 12
66 0 79 -3 88 -19z m209 10 c11 -7 13 -50 12 -227 -1 -121 -6 -223 -11 -228
-9 -9 -125 -4 -136 6 -11 12 -16 402 -5 431 10 25 14 27 68 27 32 0 64 -4 72
-9z m144 -4 c16 -11 17 -34 15 -227 l-3 -215 -28 -13 c-25 -12 -31 -12 -48 4
-18 16 -19 32 -19 221 0 122 4 212 10 224 12 22 48 25 73 6z m243 2 c11 -9 14
-54 14 -225 0 -251 4 -242 -115 -239 l-70 1 -3 223 c-1 128 2 228 7 235 13 15
149 20 167 5z m133 2 c12 -8 15 -47 13 -228 -2 -120 -7 -222 -11 -226 -5 -5
-21 -7 -37 -5 l-29 3 -3 220 c-1 121 0 225 2 232 6 15 44 17 65 4z m215 3 c14
-5 16 -35 16 -229 l0 -224 -42 -5 c-24 -3 -59 -2 -78 2 l-35 8 -3 189 c-3 212
1 252 26 258 27 7 99 8 116 1z m184 -7 c12 -14 18 -402 7 -429 -10 -26 -100
-26 -114 0 -12 23 -11 414 1 430 14 16 93 16 106 -1z m-2048 -697 c0 -5 -4
-10 -10 -10 -5 0 -10 5 -10 10 0 6 5 10 10 10 6 0 10 -4 10 -10z"/>
<path d="M3163 1483 c9 -2 25 -2 35 0 9 3 1 5 -18 5 -19 0 -27 -2 -17 -5z"/>
<path d="M3728 1483 c7 -3 16 -2 19 1 4 3 -2 6 -13 5 -11 0 -14 -3 -6 -6z"/>
<path d="M3808 1483 c7 -3 16 -2 19 1 4 3 -2 6 -13 5 -11 0 -14 -3 -6 -6z"/>
<path d="M3878 1483 c6 -2 18 -2 25 0 6 3 1 5 -13 5 -14 0 -19 -2 -12 -5z"/>
<path d="M3958 1483 c7 -3 16 -2 19 1 4 3 -2 6 -13 5 -11 0 -14 -3 -6 -6z"/>
<path d="M1324 2322 c7 -12 96 -12 96 -1 0 5 -23 9 -51 9 -27 0 -48 -4 -45 -8z"/>
<path d="M1160 2270 c-8 -5 -31 -10 -50 -10 -50 0 -80 -10 -80 -26 0 -10 14
-14 48 -14 48 0 65 8 91 43 15 19 13 21 -9 7z"/>
<path d="M897 2214 c-3 -4 8 -20 25 -36 36 -33 42 -31 33 11 -5 23 -12 31 -29
31 -13 0 -26 -3 -29 -6z"/>
<path d="M2148 2163 c7 -3 16 -2 19 1 4 3 -2 6 -13 5 -11 0 -14 -3 -6 -6z"/>
<path d="M1985 2151 c-9 -8 6 -20 20 -15 7 3 22 1 33 -5 18 -10 42 1 42 20 0
7 -88 7 -95 0z"/>
<path d="M970 2121 c0 -6 5 -13 10 -16 6 -3 10 1 10 9 0 9 -4 16 -10 16 -5 0
-10 -4 -10 -9z"/>
<path d="M1863 2104 c27 -15 47 -12 47 7 0 5 -17 9 -37 9 l-38 -1 28 -15z"/>
<path d="M2118 2093 c-16 -2 -28 -9 -28 -14 0 -12 167 -12 174 0 12 19 -65 26
-146 14z"/>
<path d="M1691 2081 c-10 -7 -10 -10 -1 -16 6 -4 16 -3 22 3 13 13 -4 23 -21
13z"/>
<path d="M1011 2054 c0 -11 3 -14 6 -6 3 7 2 16 -1 19 -3 4 -6 -2 -5 -13z"/>
<path d="M1930 2056 c0 -22 123 -36 135 -15 11 17 -1 21 -70 25 -49 2 -65 0
-65 -10z"/>
<path d="M1738 2023 c-7 -9 -3 -14 14 -18 36 -9 153 -1 153 10 0 15 -155 23
-167 8z"/>
<path d="M1040 1984 c0 -8 5 -12 10 -9 6 4 8 11 5 16 -9 14 -15 11 -15 -7z"/>
<path d="M1050 1955 c0 -5 5 -17 10 -25 5 -8 10 -10 10 -5 0 6 -5 17 -10 25
-5 8 -10 11 -10 5z"/>
<path d="M1863 1933 c-33 -13 -6 -23 60 -23 44 0 66 4 57 9 -20 11 -101 21
-117 14z"/>
<path d="M1690 1892 c-5 -2 -8 -8 -4 -13 8 -13 88 -11 107 4 15 10 9 12 -38
12 -30 0 -59 -2 -65 -3z"/>
<path d="M1086 1855 c-3 -9 -6 -24 -5 -33 0 -9 5 -4 10 12 9 32 6 48 -5 21z"/>
<path d="M3822 1719 c3 -9 24 -15 64 -17 76 -4 61 18 -17 26 -41 4 -51 2 -47
-9z"/>
<path d="M3984 1675 c24 -18 59 -20 54 -2 -3 6 -20 13 -39 15 -32 2 -33 1 -15
-13z"/>
<path d="M2810 1670 c0 -5 7 -10 15 -10 8 0 15 5 15 10 0 6 -7 10 -15 10 -8 0
-15 -4 -15 -10z"/>
<path d="M1960 1550 c0 -32 -41 -79 -70 -80 -12 -1 -11 -4 3 -14 15 -12 17
-18 7 -36 -20 -38 -124 -57 -136 -25 -9 22 -42 18 -49 -6 -5 -14 0 -28 14 -43
24 -25 41 -138 23 -150 -5 -3 -7 -16 -4 -29 6 -22 6 -22 13 3 4 14 7 52 8 85
1 34 6 66 13 73 17 17 47 15 54 -3 4 -10 17 -1 44 33 20 26 47 56 59 66 12 11
21 31 21 48 0 15 5 28 10 28 6 0 10 18 10 40 0 22 -4 40 -10 40 -5 0 -10 -14
-10 -30z"/>
<path d="M1805 1469 c-10 -15 3 -25 16 -12 7 7 7 13 1 17 -6 3 -14 1 -17 -5z"/>
<path d="M542 1267 c1 -85 6 -159 10 -163 4 -4 14 -2 21 5 8 6 22 9 31 5 14
-5 16 10 16 145 0 137 -2 151 -17 151 -10 0 -29 3 -41 7 l-24 6 4 -156z"/>
<path d="M1084 1365 c-8 -20 2 -44 21 -51 20 -8 21 -6 30 34 6 30 5 32 -20 32
-14 0 -28 -7 -31 -15z"/>
<path d="M942 1305 c-18 -20 -22 -36 -20 -68 l3 -42 14 28 c18 35 59 47 78 22
7 -11 13 -35 13 -54 0 -27 3 -32 10 -21 15 24 13 110 -3 104 -23 -8 -65 14
-69 36 -3 21 -4 21 -26 -5z"/>
<path d="M205 1270 c-3 -5 1 -10 9 -10 8 0 18 5 21 10 3 6 -1 10 -9 10 -8 0
-18 -4 -21 -10z"/>
<path d="M277 1273 c-8 -7 11 -33 24 -33 5 0 9 9 9 20 0 19 -20 27 -33 13z"/>
<path d="M1240 1265 c7 -8 17 -15 22 -15 6 0 5 7 -2 15 -7 8 -17 15 -22 15 -6
0 -5 -7 2 -15z"/>
<path d="M1610 1258 c0 -20 1 -21 20 -3 16 15 22 15 35 5 12 -10 15 -10 15 4
0 12 -9 16 -35 16 -29 0 -35 -4 -35 -22z"/>
<path d="M2291 1254 c0 -11 3 -14 6 -6 3 7 2 16 -1 19 -3 4 -6 -2 -5 -13z"/>
<path d="M1191 1244 c0 -11 3 -14 6 -6 3 7 2 16 -1 19 -3 4 -6 -2 -5 -13z"/>
<path d="M1589 1227 c0 -4 -1 -81 -1 -172 0 -254 0 -245 18 -238 10 4 14 15
12 33 -1 17 5 37 16 49 17 18 18 26 8 60 -16 51 -15 61 3 61 9 0 20 -12 26
-27 6 -16 16 -40 24 -55 7 -16 9 -28 4 -28 -5 0 -9 -27 -9 -61 l0 -60 -52 2
c-58 3 -71 -10 -42 -43 16 -16 27 -19 61 -14 58 8 68 -11 59 -114 -4 -42 -4
-101 1 -131 l7 -54 7 55 c9 71 11 418 3 459 -4 17 -12 31 -19 31 -13 0 -34
112 -31 175 1 37 -1 40 -25 40 -15 0 -36 9 -48 19 -12 11 -21 16 -22 13z m75
-80 c8 -22 6 -31 -12 -47 l-22 -21 0 51 c0 57 17 65 34 17z"/>
<path d="M1190 971 l0 -241 40 0 c45 0 45 -1 27 33 -10 19 -12 72 -10 208 l3
183 -30 29 -30 29 0 -241z"/>
<path d="M240 1174 c0 -8 5 -12 10 -9 6 3 10 10 10 16 0 5 -4 9 -10 9 -5 0
-10 -7 -10 -16z"/>
<path d="M209 1133 c-1 -5 0 -39 1 -78 1 -38 -3 -83 -9 -98 -14 -35 -25 -397
-12 -397 5 0 12 62 15 138 9 182 13 261 22 360 5 59 4 82 -5 82 -6 0 -11 -3
-12 -7z"/>
<path d="M898 973 c-3 -87 -1 -164 2 -172 12 -23 19 26 20 144 2 166 1 185 -9
185 -5 0 -11 -71 -13 -157z"/>
<path d="M2291 1114 c0 -11 3 -14 6 -6 3 7 2 16 -1 19 -3 4 -6 -2 -5 -13z"/>
<path d="M1827 908 c-14 -410 -6 -651 16 -539 10 47 8 741 -1 741 -5 0 -12
-91 -15 -202z"/>
<path d="M1123 1045 c0 -22 2 -30 4 -17 2 12 2 30 0 40 -3 9 -5 -1 -4 -23z"/>
<path d="M1751 1054 c0 -11 3 -14 6 -6 3 7 2 16 -1 19 -3 4 -6 -2 -5 -13z"/>
<path d="M1005 1020 c-9 -14 -4 -360 5 -365 12 -8 20 82 20 231 0 131 -6 164
-25 134z"/>
<path d="M547 978 c-3 -13 -4 -81 -2 -151 1 -70 -2 -130 -6 -133 -22 -13 -5
-24 36 -24 l46 0 -3 153 c-3 132 -5 152 -19 152 -9 0 -23 6 -31 13 -13 11 -17
9 -21 -10z"/>
<path d="M1123 945 c0 -27 2 -38 4 -22 2 15 2 37 0 50 -2 12 -4 0 -4 -28z"/>
<path d="M2978 353 c17 -2 47 -2 65 0 17 2 3 4 -33 4 -36 0 -50 -2 -32 -4z"/>
<path d="M3298 353 c7 -3 16 -2 19 1 4 3 -2 6 -13 5 -11 0 -14 -3 -6 -6z"/>
<path d="M3453 353 c53 -2 141 -2 195 0 53 1 9 3 -98 3 -107 0 -151 -2 -97 -3z"/>
<path d="M3873 353 c31 -2 83 -2 115 0 31 2 5 3 -58 3 -63 0 -89 -1 -57 -3z"/>
<path d="M3993 293 c32 -2 81 -2 110 0 29 2 3 3 -58 3 -60 0 -84 -1 -52 -3z"/>
<path d="M4208 293 c7 -3 16 -2 19 1 4 3 -2 6 -13 5 -11 0 -14 -3 -6 -6z"/>
<path d="M4343 293 c48 -2 126 -2 175 0 48 1 8 3 -88 3 -96 0 -136 -2 -87 -3z"/>
<path d="M4678 293 c7 -3 16 -2 19 1 4 3 -2 6 -13 5 -11 0 -14 -3 -6 -6z"/>
<path d="M2818 233 c12 -2 32 -2 45 0 12 2 2 4 -23 4 -25 0 -35 -2 -22 -4z"/>
</g>
</svg>
